Coordinates
version=1
nRows=37
nColumns=38
inDegrees=no

Units are S.I. units (second, meters, Newtons, ...)
If the header above contains a line with 'inDegrees', this indicates whether rotational values are in degrees (yes) or radians (no).

endheader
time	pelvis_tilt	pelvis_list	pelvis_rotation	pelvis_tx	pelvis_ty	pelvis_tz	hip_flexion_r	hip_adduction_r	hip_rotation_r	knee_angle_r	ankle_angle_r	subtalar_angle_r	mtp_angle_r	hip_flexion_l	hip_adduction_l	hip_rotation_l	knee_angle_l	ankle_angle_l	subtalar_angle_l	mtp_angle_l	lumbar_extension	lumbar_bending	lumbar_rotation	arm_flex_r	arm_add_r	arm_rot_r	elbow_flex_r	pro_sup_r	wrist_flex_r	wrist_dev_r	arm_flex_l	arm_add_l	arm_rot_l	elbow_flex_l	pro_sup_l	wrist_flex_l	wrist_dev_l
0.58	0.17233	1.1943	1.43816	0.738827	0.0438367	1.00425	0.0652688	0.0587213	-0.223343	0.170926	-0.0987078	0	0	0.694251	-0.042621	-0.2055	0	-0.179099	0	0	0.277782	0.0139474	0.0294827	-0.0159645	-0.257001	0.0953864	0.78085	1.5708	0	0	-0.2275	-0.251429	0.492798	0.425786	1.1019	0	0
0.59	0.168164	1.20049	1.43996	0.737805	0.0585464	1.00235	0.0539353	0.0523917	-0.225444	0.192224	-0.0970997	0	0	0.693791	-0.0371005	-0.210742	0	-0.178439	0	0	0.271088	0.0100479	0.0333803	-0.0164447	-0.252964	0.0871674	0.774241	1.5708	0	0	-0.223259	-0.250594	0.505885	0.413934	1.09428	0	0
0.6	0.162911	1.20665	1.44235	0.736846	0.0737284	1.00064	0.0433108	0.0450053	-0.227743	0.215365	-0.0987523	0	0	0.692631	-0.0328938	-0.215656	0.00715705	-0.177948	0	0	0.265975	0.00593405	0.0388964	-0.0190865	-0.247922	0.0772437	0.765328	1.5708	0	0	-0.220075	-0.251173	0.521435	0.404356	1.08393	0	0
0.61	0.157725	1.21159	1.44379	0.735969	0.0893823	0.998984	0.0348207	0.0370621	-0.229757	0.240591	-0.104856	0	0	0.692219	-0.0305168	-0.219747	0.0439336	-0.173122	0	0	0.264261	0.00258751	0.0456548	-0.0239891	-0.242973	0.0682932	0.754548	1.56965	0	0	-0.219404	-0.252383	0.534787	0.397657	1.07283	0	0
0.62	0.151207	1.21512	1.44493	0.735198	0.105531	0.997358	0.028894	0.0280345	-0.230145	0.267688	-0.115293	0	0	0.690667	-0.0283668	-0.219045	0.079663	-0.169179	0	0	0.266493	-0.000267321	0.0543464	-0.0308159	-0.238008	0.0607408	0.741162	1.56778	0	0	-0.221204	-0.254133	0.546202	0.393282	1.06119	0	0
0.63	0.141508	1.21639	1.44734	0.734526	0.122085	0.995706	0.0270297	0.0173341	-0.228015	0.297209	-0.13272	0	0	0.689202	-0.0250863	-0.215306	0.109638	-0.176178	0	0	0.273983	-0.0030822	0.0651844	-0.0390843	-0.23253	0.0542808	0.724059	1.56699	0	0	-0.224815	-0.256942	0.561057	0.390578	1.04272	0	0
0.64	0.127461	1.21503	1.45246	0.733976	0.138815	0.9941	0.0306297	0.00474011	-0.222113	0.33057	-0.154189	0	0	0.689692	-0.020118	-0.210601	0.130273	-0.206203	0	0	0.286297	-0.00654252	0.0768353	-0.046844	-0.226283	0.0505931	0.7022	1.56725	0	0	-0.230218	-0.260312	0.575131	0.389208	1.01997	0	0
0.65	0.108967	1.20963	1.46138	0.733539	0.155347	0.992567	0.0423163	-0.00938796	-0.210767	0.369062	-0.180495	0	0	0.696057	-0.0149032	-0.205413	0.147597	-0.242742	0	0	0.304415	-0.0110317	0.0882975	-0.0528738	-0.218926	0.0505096	0.674066	1.57024	0	0	-0.236905	-0.264179	0.58892	0.38839	0.996094	0	0
0.66	0.0879222	1.20058	1.47388	0.7331	0.171409	0.991141	0.062005	-0.0243853	-0.194928	0.412587	-0.209713	0	0	0.708395	-0.0114546	-0.198126	0.170906	-0.263243	0	0	0.326058	-0.0165705	0.0977179	-0.0568996	-0.21089	0.0536888	0.642232	1.5708	0	0	-0.244532	-0.267771	0.595537	0.388777	0.976013	0	0
0.67	0.0645266	1.1892	1.49084	0.732485	0.186984	0.989803	0.087858	-0.0405384	-0.177404	0.459467	-0.246965	0	0	0.724163	-0.00874839	-0.188369	0.20313	-0.263838	0	0	0.34931	-0.0236185	0.103389	-0.0592309	-0.202882	0.0610182	0.608701	1.5708	0	0	-0.253144	-0.272097	0.599309	0.392437	0.953474	0	0
0.68	0.0387903	1.17874	1.51307	0.731552	0.202127	0.988749	0.115656	-0.0580801	-0.161227	0.50833	-0.288389	0	0	0.739447	-0.00372587	-0.176658	0.243087	-0.247926	0	0	0.36872	-0.0330504	0.105091	-0.0599769	-0.195078	0.0702068	0.57618	1.5708	0	0	-0.261296	-0.276844	0.598198	0.399496	0.932951	0	0
0.69	0.0111702	1.17097	1.53964	0.73041	0.216865	0.988131	0.143339	-0.076343	-0.145992	0.559432	-0.331371	0	0	0.751902	0.00432751	-0.165192	0.287575	-0.226133	0	0	0.381541	-0.0451289	0.103666	-0.0591823	-0.187039	0.0796331	0.545576	1.5708	0	0	-0.267891	-0.282086	0.591923	0.409328	0.917139	0	0
0.7	-0.0177302	1.16667	1.56851	0.729246	0.23119	0.987997	0.1702	-0.0943356	-0.129722	0.612864	-0.378624	0	0	0.759729	0.0143497	-0.157429	0.33134	-0.202429	0	0	0.38703	-0.0590504	0.100217	-0.0557448	-0.179422	0.0926018	0.515327	1.5708	0	0	-0.272166	-0.287904	0.582976	0.421057	0.904596	0	0
0.71	-0.0461198	1.1667	1.59668	0.728116	0.245149	0.988326	0.195363	-0.111085	-0.112483	0.668469	-0.429277	0	0	0.760955	0.0246793	-0.154289	0.369131	-0.179802	0	0	0.384426	-0.0729724	0.0959994	-0.0507192	-0.172742	0.107767	0.487451	1.5708	0	0	-0.273219	-0.293647	0.572762	0.433459	0.89572	0	0
0.72	-0.072413	1.17014	1.62132	0.727058	0.258785	0.988938	0.2194	-0.125803	-0.0946312	0.724824	-0.483158	0	0	0.755691	0.0338318	-0.154464	0.398175	-0.159852	0	0	0.375588	-0.0850573	0.0917263	-0.0452658	-0.167739	0.125796	0.463259	1.5708	0	0	-0.271699	-0.298853	0.561668	0.446499	0.889569	0	0
0.73	-0.0958689	1.17571	1.64111	0.726136	0.27217	0.989753	0.242941	-0.138114	-0.076996	0.779534	-0.540878	0	0	0.744826	0.0413242	-0.155575	0.41879	-0.141972	0	0	0.363227	-0.0945095	0.0882051	-0.0395948	-0.164373	0.147733	0.441629	1.5708	0	0	-0.268234	-0.30342	0.550666	0.45965	0.886711	0	0
0.74	-0.117278	1.18273	1.65677	0.725377	0.285415	0.990848	0.266007	-0.148394	-0.0604023	0.830942	-0.599566	0	0	0.728874	0.0476502	-0.157188	0.432562	-0.124949	0	0	0.349203	-0.101667	0.0861371	-0.0337504	-0.162045	0.173157	0.420943	1.5708	0	0	-0.263304	-0.30764	0.541308	0.472179	0.890019	0	0
0.75	-0.136493	1.19044	1.66822	0.724813	0.298586	0.992254	0.288822	-0.156347	-0.0438754	0.878579	-0.647271	0	0	0.709245	0.052755	-0.159988	0.441642	-0.108117	0	0	0.33521	-0.106481	0.0854052	-0.0276524	-0.160634	0.202821	0.400147	1.5708	0	0	-0.257241	-0.310754	0.531597	0.483045	0.896758	0	0
0.76	-0.151244	1.19756	1.67346	0.724529	0.311664	0.993946	0.312413	-0.160735	-0.0260092	0.922787	-0.668222	0	0	0.68809	0.0556797	-0.164085	0.446778	-0.0928361	0	0	0.323265	-0.108393	0.086646	-0.0224803	-0.159212	0.23281	0.379636	1.5708	0	0	-0.249883	-0.313209	0.523441	0.492071	0.905661	0	0
0.77	-0.160002	1.20331	1.67197	0.724431	0.324629	0.995876	0.337148	-0.161435	-0.00855927	0.963117	-0.664907	0	0	0.666606	0.0563432	-0.169184	0.447496	-0.0789652	0	0	0.314416	-0.107495	0.0872845	-0.0173314	-0.158012	0.267694	0.358629	1.5708	0	0	-0.243151	-0.315203	0.515775	0.500279	0.917968	0	0
0.78	-0.163167	1.20687	1.6653	0.724403	0.337445	0.997991	0.363632	-0.159408	0.00623736	1.00005	-0.64097	0	0	0.645995	0.0553115	-0.174967	0.444034	-0.0682435	0	0	0.309688	-0.104357	0.0869726	-0.0133266	-0.157287	0.305838	0.338455	1.5708	0	0	-0.236624	-0.316542	0.508733	0.507117	0.934649	0	0
0.79	-0.163281	1.20847	1.65748	0.724241	0.350109	1.00023	0.39132	-0.156224	0.0181948	1.03428	-0.598741	0	0	0.626251	0.0540493	-0.181187	0.436397	-0.0608262	0	0	0.30856	-0.100513	0.0838161	-0.010489	-0.156841	0.347124	0.319961	1.5708	0	0	-0.23151	-0.31707	0.498771	0.513477	0.961563	0	0
0.8	-0.160659	1.21042	1.65069	0.723716	0.362728	1.00267	0.417122	-0.152801	0.0264968	1.06512	-0.547467	0	0	0.605305	0.0533471	-0.185874	0.425084	-0.0575844	0	0	0.307313	-0.0965643	0.0769604	-0.010037	-0.157005	0.384089	0.306388	1.5708	0	0	-0.226834	-0.317627	0.487051	0.520918	0.994032	0	0
0.81	-0.155722	1.21444	1.64584	0.72277	0.375387	1.00544	0.438705	-0.149633	0.0312897	1.09162	-0.490867	0	0	0.581702	0.0533766	-0.18808	0.411288	-0.0577847	0	0	0.303482	-0.0927534	0.0657784	-0.0109185	-0.158006	0.417412	0.29701	1.5708	0	0	-0.222987	-0.318298	0.470909	0.53107	1.02797	0	0
0.82	-0.146763	1.21673	1.6382	0.721805	0.387785	1.00833	0.46132	-0.145399	0.0329926	1.11265	-0.433919	0	0	0.560353	0.0520054	-0.188984	0.397191	-0.0606172	0	0	0.301719	-0.0879713	0.0535362	-0.0131528	-0.15939	0.446264	0.290402	1.5708	0	0	-0.219911	-0.318944	0.451243	0.542774	1.0633	0	0
0.83	-0.137406	1.22063	1.63206	0.72069	0.400159	1.01149	0.480612	-0.14168	0.0332791	1.12713	-0.384709	0	0	0.537182	0.0510577	-0.190612	0.383111	-0.0649707	0	0	0.297991	-0.083474	0.0405176	-0.0164425	-0.161267	0.468962	0.286387	1.5708	0	0	-0.216115	-0.320716	0.433678	0.55615	1.09622	0	0
0.84	-0.126518	1.22476	1.62395	0.71965	0.41225	1.01479	0.49914	-0.137052	0.0331291	1.13554	-0.339974	0	0	0.514047	0.0490324	-0.194911	0.369871	-0.0706271	0	0	0.293149	-0.0785124	0.0276281	-0.0193642	-0.163482	0.488324	0.284321	1.5708	0	0	-0.212707	-0.322171	0.411759	0.571079	1.1307	0	0
0.85	-0.112932	1.22916	1.61596	0.718484	0.424335	1.01812	0.515517	-0.132571	0.0302799	1.13785	-0.304539	0	0	0.490729	0.047525	-0.196489	0.357079	-0.0769051	0	0	0.287931	-0.0737229	0.012872	-0.0236783	-0.165554	0.499341	0.28447	1.5708	0	0	-0.209876	-0.324368	0.389777	0.588178	1.15995	0	0
0.86	-0.0953882	1.23141	1.60413	0.717345	0.436269	1.02125	0.533352	-0.127114	0.0254502	1.13429	-0.276816	0	0	0.470026	0.0448263	-0.197596	0.344368	-0.0834673	0	0	0.285273	-0.067702	-0.00129015	-0.0294172	-0.167773	0.503499	0.286385	1.5708	0	0	-0.207929	-0.326538	0.36776	0.606826	1.18387	0	0
0.87	-0.0770671	1.23481	1.59316	0.71607	0.448298	1.02438	0.548243	-0.122332	0.0193988	1.12558	-0.248359	0	0	0.447749	0.042787	-0.194984	0.330572	-0.0917089	0	0	0.280428	-0.0620493	-0.0175482	-0.0349197	-0.170012	0.50411	0.289744	1.5708	0	0	-0.208458	-0.326555	0.334967	0.627852	1.21206	0	0
0.88	-0.0567761	1.23937	1.58188	0.714666	0.460408	1.02744	0.560186	-0.117881	0.0123119	1.11221	-0.223356	0	0	0.424146	0.0405913	-0.191719	0.316159	-0.0998535	0	0	0.274004	-0.0561098	-0.0348169	-0.0405645	-0.172391	0.501337	0.293734	1.5708	0	0	-0.20946	-0.325864	0.300647	0.65038	1.23718	0	0
0.89	-0.0361382	1.24163	1.5671	0.713596	0.472052	1.03019	0.574767	-0.11163	0.00719043	1.09415	-0.201802	0	0	0.403649	0.0365027	-0.191259	0.302555	-0.107198	0	0	0.269587	-0.0490336	-0.0479473	-0.045981	-0.17485	0.496038	0.297777	1.5708	0	0	-0.209094	-0.326035	0.271924	0.673392	1.25449	0	0
0.9	-0.0136738	1.24113	1.54824	0.712678	0.483518	1.03282	0.591084	-0.103554	0.00246472	1.06977	-0.177911	0	0	0.386286	0.0306021	-0.193438	0.289044	-0.116503	0	0	0.265746	-0.0370292	-0.0651107	-0.0491832	-0.180079	0.489691	0.305791	1.5708	0	0	-0.209823	-0.320527	0.235773	0.69074	1.27492	0	0
0.91	0.0068317	1.2391	1.5313	0.711853	0.494936	1.03493	0.607799	-0.0959332	-0.00181653	1.04191	-0.157381	0	0	0.370779	0.0251564	-0.195947	0.276458	-0.123562	0	0	0.265974	-0.0286882	-0.0750607	-0.0553974	-0.182537	0.479637	0.310223	1.5708	0	0	-0.210226	-0.319503	0.208129	0.714039	1.29014	0	0
0.92	0.0270427	1.23703	1.51564	0.710948	0.5064	1.03677	0.62272	-0.0890002	-0.00675477	1.00961	-0.136598	0	0	0.355196	0.0202952	-0.19811	0.263631	-0.130637	0	0	0.266021	-0.0205754	-0.0848573	-0.0620304	-0.184692	0.466491	0.314722	1.5708	0	0	-0.210521	-0.318264	0.181677	0.738155	1.30266	0	0
0.93	0.0462183	1.2339	1.50086	0.71008	0.517814	1.03829	0.637262	-0.0823358	-0.0117019	0.97237	-0.117398	0	0	0.34072	0.0156972	-0.201002	0.250723	-0.137544	0	0	0.267324	-0.012486	-0.0934201	-0.0685742	-0.18686	0.453325	0.318657	1.56985	0	0	-0.21028	-0.316999	0.157828	0.762129	1.31332	0	0
0.94	0.0634445	1.22956	1.48788	0.709278	0.52919	1.03946	0.651542	-0.0763003	-0.017233	0.929924	-0.101401	0	0	0.327681	0.0114165	-0.204798	0.238275	-0.144019	0	0	0.27022	-0.00477061	-0.101071	-0.0748006	-0.188853	0.440841	0.321512	1.56708	0	0	-0.209602	-0.316191	0.137141	0.785741	1.32276	0	0
